<svg width="24" height="24" viewBox="0 0 24 24" fill="none" xmlns="http://www.w3.org/2000/svg">
<path d="M12 21C10.891 21 9.85158 20.7913 8.88175 20.374C7.91192 19.9567 7.0645 19.3855 6.3395 18.6605C5.6145 17.9355 5.04333 17.0881 4.626 16.1182C4.20867 15.1484 4 14.109 4 13H5C5 14.95 5.67917 16.6042 7.0375 17.9625C8.39583 19.3208 10.05 20 12 20C13.95 20 15.6042 19.3208 16.9625 17.9625C18.3208 16.6042 19 14.95 19 13C19 11.05 18.3208 9.39582 16.9625 8.03748C15.6042 6.67915 13.95 5.99998 12 5.99998H11.6192L13.2462 7.62699L12.5385 8.34623L9.69225 5.48073L12.577 2.61523L13.2845 3.33448L11.6192 4.99998H12C13.109 4.99998 14.1484 5.20865 15.1182 5.62598C16.0881 6.04332 16.9355 6.61449 17.6605 7.33949C18.3855 8.06449 18.9567 8.9119 19.374 9.88174C19.7913 10.8516 20 11.891 20 13C20 14.109 19.7913 15.1484 19.374 16.1182C18.9567 17.0881 18.3855 17.9355 17.6605 18.6605C16.9355 19.3855 16.0881 19.9567 15.1182 20.374C14.1484 20.7913 13.109 21 12 21Z" fill="#282828"/>
</svg>
